<svg width="1388" height="1097" viewBox="0 0 1388 1097" fill="none" xmlns="http://www.w3.org/2000/svg">
<g clip-path="url(#clip0)">
<path d="M982.51 586.097C1091 696.464 1054.33 795.309 980.995 945.396C978.571 950.247 976.449 955.099 974.025 959.95H1154.65C1211.02 834.119 1207.98 646.738 1045.24 481.491C955.235 389.922 948.871 347.17 948.265 341.409C952.508 334.436 972.206 323.52 989.481 320.791C1017.36 316.243 1037.36 283.194 1033.73 246.809C1030.09 210.424 1004.94 184.349 977.055 188.593C966.145 190.109 870.379 207.089 849.468 305.025C826.739 412.36 914.626 516.663 982.51 586.097Z" fill="#EBEBEB"/>
<path d="M655.815 441.165L974.631 477.853C1001.6 480.885 1027.97 466.028 1042.52 439.649C1058.27 410.541 1071.31 373.853 1051.91 352.022C1036.15 334.436 1027.36 310.483 1028.88 285.317C1034.64 193.142 997.057 77.9235 877.35 68.2209C809.768 62.7632 785.826 110.063 779.462 161.608C773.704 209.818 734.307 242.261 693.394 232.256C657.33 223.463 625.206 233.772 627.934 300.174C629.146 332.617 614.296 362.937 589.446 377.794C553.382 399.019 533.683 434.494 655.815 441.165Z" fill="#E0E0E0"/>
<path d="M414.582 954.19C417.309 956.312 420.037 958.132 422.764 959.951H1013.12C1065.55 936.604 1091.91 914.47 1056.46 901.432C1024.94 889.91 994.935 862.622 979.176 830.482C959.175 789.549 898.563 784.395 844.013 788.943C797.948 792.884 742.792 755.287 720.366 703.135C696.424 647.648 649.451 591.252 558.534 593.981C413.672 598.529 367.305 697.981 395.792 807.438C404.581 841.397 396.701 872.021 374.275 887.181C353.061 901.432 385.488 932.056 414.582 954.19Z" fill="#FAFAFA"/>
<path d="M14.5468 955.402C15.7591 956.918 16.9713 958.435 18.1835 959.951H471.556C521.864 942.061 551.866 925.082 530.349 915.076C511.257 905.98 500.044 885.362 501.862 860.499C504.287 829.269 460.04 825.024 416.097 828.359C378.821 831.391 353.061 802.587 358.516 762.563C364.274 720.114 352.758 676.453 281.54 678.878C168.5 682.517 89.7049 758.925 63.642 842.913C55.7626 868.989 36.3669 892.639 12.4254 904.161C-9.69771 914.773 1.81845 938.423 14.5468 955.402Z" fill="#E6E6E6"/>
<path d="M813.101 610.96L1316.48 487.858C1342.84 484.826 1366.48 466.937 1380.42 436.616C1391.03 413.572 1394.06 387.8 1366.79 374.762C1335.57 359.602 1312.54 330.191 1301.63 295.322C1275.87 212.547 1186.47 128.559 1015.54 145.538C926.748 154.331 896.745 191.625 892.199 233.468C885.532 296.232 836.74 342.622 777.644 343.229C728.245 343.835 687.636 357.479 694 402.657C700.061 446.622 680.969 489.677 647.329 514.54C611.266 540.919 645.208 630.365 813.101 610.96Z" fill="#F5F5F5"/>
<path d="M561.385 148.135C600.663 131.857 619.315 86.8051 603.045 47.5081C586.775 8.21103 541.745 -10.4498 502.468 5.82788C463.19 22.1056 444.538 67.1578 460.808 106.455C477.078 145.752 522.108 164.413 561.385 148.135Z" fill="#F0F0F0"/>
<path d="M504.893 55.1835C539.441 33.0495 532.168 12.1282 460.04 16.3731C387.913 20.618 376.094 53.3643 376.094 53.3643C376.094 53.3643 266.993 49.4226 276.085 72.7695C213.958 78.2272 196.987 83.6849 239.718 86.4137L552.473 64.5829C552.473 64.5829 563.686 50.3322 504.893 55.1835Z" fill="#FAFAFA"/>
<path d="M138.194 279.253L308.512 267.428C308.512 267.428 374.275 244.384 333.059 244.99C364.577 227.101 386.094 198.903 320.331 202.845C254.871 206.786 233.354 244.99 233.354 244.99C233.354 244.99 169.409 224.676 145.467 265.608C130.314 266.821 55.1564 285.014 138.194 279.253Z" fill="#F5F5F5"/>
<path d="M1044.94 69.7374L1169.5 61.2476C1169.5 61.2476 1217.68 44.5713 1187.38 44.8745C1210.41 31.8366 1226.17 11.2186 1178.28 13.9474C1130.4 16.6763 1114.64 44.8745 1114.64 44.8745C1114.64 44.8745 1067.67 30.0174 1050.39 60.0348C1039.18 60.6412 984.328 73.9823 1044.94 69.7374Z" fill="#F5F5F5"/>
<path d="M692.182 1097C1016.72 1097 1279.81 1081.66 1279.81 1062.74C1279.81 1043.82 1016.72 1028.48 692.182 1028.48C367.644 1028.48 104.555 1043.82 104.555 1062.74C104.555 1081.66 367.644 1097 692.182 1097Z" fill="#F5F5F5"/>
<path d="M460.04 156.455C455.797 137.353 430.037 111.883 415.188 102.484C400.338 93.0847 398.823 136.443 401.853 151.603C404.884 166.764 415.491 187.382 426.098 192.233C415.188 195.265 387.003 222.554 406.399 232.56C425.492 242.565 449.736 228.921 449.736 228.921L460.04 156.455Z" fill="#EEBD5D"/>
<path d="M489.437 256.512L488.831 253.48C493.073 252.571 496.71 250.751 499.741 248.326L501.862 250.448C498.225 253.48 494.286 255.299 489.437 256.512Z" fill="#EEBD5D"/>
<path d="M509.742 235.289L506.711 234.682C508.226 226.193 506.105 214.671 501.256 205.575L503.983 204.059C509.135 213.761 511.56 226.193 509.742 235.289Z" fill="#EEBD5D"/>
<path d="M462.768 156.759C472.769 139.779 505.802 122.496 523.076 117.645C540.35 112.794 528.228 158.578 519.439 171.313C510.651 184.047 500.044 199.511 488.225 201.33C497.619 207.091 508.832 241.656 487.315 245.901C465.798 250.146 449.433 229.225 449.433 229.225L462.768 156.759Z" fill="#EEBD5D"/>
<path d="M447.009 230.74L455.191 153.422C455.494 150.693 457.919 148.571 460.343 148.874L465.192 149.481C467.617 149.784 469.132 152.513 468.526 155.241L451.555 231.346C450.645 234.681 446.706 234.075 447.009 230.74Z" fill="#263238"/>
<path d="M461.555 153.726L459.737 153.12C459.737 152.817 466.707 129.166 451.858 120.677L452.767 119.161C468.829 128.257 461.858 152.513 461.555 153.726Z" fill="#263238"/>
<path d="M464.889 154.029L463.071 153.726C463.374 152.21 467.92 119.16 486.406 118.25V120.07C469.435 120.979 464.889 153.726 464.889 154.029Z" fill="#263238"/>
<path d="M268.811 320.793C269.114 308.665 280.024 290.775 286.995 284.105C293.965 277.131 306.693 301.084 306.693 310.787C306.693 320.49 295.783 336.863 290.631 340.804C296.693 342.017 314.573 356.874 305.481 364.454C296.389 372.035 282.146 365.364 282.146 365.364L268.811 320.793Z" fill="#EEBD5D"/>
<path opacity="0.3" d="M268.811 320.793C269.114 308.665 280.024 290.775 286.995 284.105C293.965 277.131 306.693 301.084 306.693 310.787C306.693 320.49 295.783 336.863 290.631 340.804C296.693 342.017 314.573 356.874 305.481 364.454C296.389 372.035 282.146 365.364 282.146 365.364L268.811 320.793Z" fill="white"/>
<path d="M267.296 321.096C260.023 311.394 240.627 302.904 230.929 301.085C221.231 299.265 226.08 327.464 232.141 334.741C238.203 342.017 251.84 350.204 258.507 350.507C254.265 354.752 251.84 377.189 263.962 378.099C275.782 379.312 282.449 365.061 282.449 365.061L267.296 321.096Z" fill="#EEBD5D"/>
<path opacity="0.3" d="M267.296 321.096C260.023 311.394 240.627 302.904 230.929 301.085C221.231 299.265 226.08 327.464 232.141 334.741C238.203 342.017 251.84 350.204 258.507 350.507C254.265 354.752 251.84 377.189 263.962 378.099C275.782 379.312 282.449 365.061 282.449 365.061L267.296 321.096Z" fill="white"/>
<path d="M283.661 365.97L272.145 318.367C271.842 316.547 270.024 315.335 268.508 315.941L265.478 316.851C263.962 317.154 263.356 318.973 263.962 320.792L280.934 366.88C281.843 368.699 284.267 368.092 283.661 365.97Z" fill="#263238"/>
<path d="M268.205 318.973C267.902 318.064 259.417 299.871 268.811 292.594L269.417 293.504C260.932 300.174 269.114 318.367 269.114 318.367L268.205 318.973Z" fill="#263238"/>
<path d="M265.781 319.277C265.781 318.974 262.447 302.298 251.84 303.207V301.995C263.659 300.782 266.993 318.368 266.993 318.974L265.781 319.277Z" fill="#263238"/>
<path d="M511.56 429.643C511.56 419.334 502.165 404.78 496.104 399.019C490.043 393.561 479.133 414.483 478.83 422.669C478.83 430.856 487.921 444.5 492.467 447.532C487.315 448.745 471.859 462.389 479.436 468.453C487.315 474.517 499.74 468.15 499.74 468.15L511.56 429.643Z" fill="#EEBD5D"/>
<path opacity="0.7" d="M511.56 429.643C511.56 419.334 502.165 404.78 496.104 399.019C490.043 393.561 479.133 414.483 478.83 422.669C478.83 430.856 487.921 444.5 492.467 447.532C487.315 448.745 471.859 462.389 479.436 468.453C487.315 474.517 499.74 468.15 499.74 468.15L511.56 429.643Z" fill="white"/>
<path d="M509.135 429.643C514.59 421.153 530.046 415.089 537.926 414.179C545.805 413.27 543.684 438.436 539.138 444.5C534.592 450.564 523.682 457.235 518.53 456.931C522.47 461.176 525.5 481.491 515.802 481.491C506.105 481.491 499.74 468.15 499.74 468.15L509.135 429.643Z" fill="#EEBD5D"/>
<path opacity="0.7" d="M509.135 429.643C514.59 421.153 530.046 415.089 537.926 414.179C545.805 413.27 543.684 438.436 539.138 444.5C534.592 450.564 523.682 457.235 518.53 456.931C522.47 461.176 525.5 481.491 515.802 481.491C506.105 481.491 499.74 468.15 499.74 468.15L509.135 429.643Z" fill="white"/>
<path d="M498.225 468.757L508.529 421.153C508.832 419.334 510.348 418.121 511.56 418.728L514.287 419.637C515.499 419.94 516.106 421.76 515.5 423.579L500.65 469.666C500.044 471.485 497.922 470.879 498.225 468.757Z" fill="#263238"/>
<path d="M512.166 421.76L511.257 421.457C511.257 421.153 518.53 402.961 510.954 396.29L511.56 395.381C519.742 402.658 512.469 421.153 512.166 421.76Z" fill="#263238"/>
<path d="M513.984 422.366L512.772 422.063C512.772 421.457 515.803 403.871 526.106 405.083V406.296C517.015 405.387 513.984 422.063 513.984 422.366Z" fill="#263238"/>
<path d="M892.199 328.675L887.956 313.818L865.227 332.92C865.227 332.92 870.379 336.862 879.168 341.713C882.804 343.836 887.35 342.623 889.472 338.984L891.29 335.952C892.502 333.83 892.805 331.101 892.199 328.675Z" fill="#B55B52"/>
<path d="M867.045 297.749L856.742 319.277L865.53 332.921L888.259 313.819L867.045 297.749Z" fill="#B55B52"/>
<path d="M894.321 326.25L835.224 318.669C828.557 317.76 823.708 311.696 824.617 304.722L829.163 269.55C830.073 262.88 836.134 258.028 843.104 258.938L902.2 266.518C908.867 267.428 913.716 273.492 912.807 280.466L908.261 315.637C907.352 322.308 901.291 326.856 894.321 326.25Z" fill="#263238"/>
<path d="M944.931 434.798C930.99 434.798 905.23 422.973 872.197 395.987C836.133 366.576 839.467 343.23 842.195 326.25C843.104 319.883 844.013 314.728 842.498 310.18L845.831 309.271C847.347 314.425 846.437 320.186 845.528 326.856C843.104 343.836 839.77 365.06 874.319 393.562C918.565 429.643 946.143 436.314 951.901 429.34C955.538 424.792 950.386 412.664 930.687 395.987C908.564 377.492 907.352 349.294 906.746 328.373C906.443 320.792 906.14 314.122 904.927 310.18L907.958 309.271C909.473 313.819 909.776 320.489 910.079 328.373C910.989 348.384 911.898 375.976 933.112 393.562C952.507 409.632 960.69 424.186 954.932 431.463C952.81 433.585 949.477 434.798 944.931 434.798Z" fill="#263238"/>
<path d="M890.987 277.737L873.713 271.976C871.894 271.37 870.379 269.248 870.682 267.125L871.894 256.513C872.197 254.39 874.016 253.481 875.834 254.087L893.108 259.848C894.927 260.455 896.442 262.577 896.139 264.699L894.927 275.312C894.624 277.131 892.805 278.344 890.987 277.737Z" fill="#263238"/>
<path d="M884.32 259.242L874.319 255.906C873.107 255.603 872.5 254.39 872.5 253.177L873.41 247.113C873.41 245.9 874.622 245.294 875.834 245.597L885.835 248.933C887.047 249.236 887.653 250.449 887.653 251.661L886.744 257.726C886.441 258.938 885.229 259.545 884.32 259.242Z" fill="#263238"/>
<path d="M758.551 304.419L730.67 300.781C726.124 300.174 722.79 295.93 723.397 291.381L727.942 256.21C728.549 251.661 732.791 248.326 737.337 248.933L765.218 252.571C769.764 253.177 773.098 257.422 772.492 261.97L767.946 297.142C767.34 301.69 763.097 305.026 758.551 304.419Z" fill="black"/>
<path d="M787.341 303.206L757.036 299.265C749.156 298.355 743.701 291.078 744.914 283.498L746.732 269.854C747.641 261.97 754.915 256.513 762.491 257.725L792.797 261.667C800.676 262.577 806.131 269.854 804.919 277.434L803.1 291.078C802.494 298.658 795.221 304.116 787.341 303.206Z" fill="#263238"/>
<path d="M757.036 300.174C753.096 299.568 749.46 297.748 747.035 294.413C744.611 291.078 743.398 287.439 744.004 283.195L745.823 269.55C747.035 261.364 754.308 255.603 762.491 256.512C762.794 256.512 763.4 257.119 763.097 257.422C763.097 257.725 762.491 258.028 762.188 258.028C754.915 257.119 748.247 262.273 747.338 269.55L745.52 283.195C744.914 286.833 746.126 290.168 748.247 293.2C750.369 295.929 753.702 297.748 757.036 298.355C757.339 298.355 757.945 298.961 757.642 299.264C757.945 299.871 757.642 300.174 757.036 300.174Z" fill="white"/>
<path d="M802.798 306.239L779.159 303.207C775.219 302.6 772.492 299.265 773.098 295.323L777.038 265.609C777.644 261.667 780.977 258.938 784.917 259.545L808.556 262.577C812.495 263.183 815.223 266.519 814.617 270.46L810.677 300.174C810.071 303.813 806.434 306.542 802.798 306.239Z" fill="#263238"/>
<path d="M808.253 306.845L784.614 303.813C780.674 303.207 777.947 299.872 778.553 295.93L782.493 266.216C783.099 262.274 786.432 259.545 790.372 260.152L814.011 263.184C817.95 263.79 820.678 267.125 820.072 271.067L816.132 300.781C815.829 304.723 812.192 307.452 808.253 306.845Z" fill="black"/>
<path d="M832.8 305.632L807.04 302.297C800.373 301.387 795.827 295.323 796.736 288.956L798.251 277.434C799.161 270.763 805.222 266.215 811.586 267.125L837.346 270.46C844.013 271.37 848.559 277.434 847.65 283.801L846.135 295.323C845.225 301.994 839.164 306.542 832.8 305.632Z" fill="#263238"/>
<path d="M807.04 303.207C800.07 302.297 794.918 295.93 795.827 288.956L797.342 277.434C797.646 274.099 799.464 271.067 802.191 268.945C804.919 266.822 808.252 265.912 811.586 266.519C811.889 266.519 812.495 267.125 812.192 267.429C812.192 267.732 811.586 268.035 811.283 268.035C808.253 267.732 805.525 268.338 803.101 270.157C800.676 271.977 799.161 274.705 798.858 277.434L797.342 288.956C796.433 295.02 800.979 300.781 807.04 301.388C807.343 301.388 807.949 301.994 807.646 302.297C807.949 302.904 807.343 303.207 807.04 303.207Z" fill="white"/>
<path opacity="0.6" d="M898.563 288.046L884.017 286.227C882.501 285.924 881.289 284.407 881.289 282.891L882.501 274.098C882.804 272.582 884.32 271.37 885.835 271.37L900.382 273.189C901.897 273.492 903.109 275.008 903.109 276.524L901.897 285.317C901.594 287.136 900.079 288.349 898.563 288.046Z" fill="#EEBD5D"/>
<path d="M839.164 318.973L835.224 318.366C828.557 317.457 823.708 311.393 824.617 304.419L829.163 269.247C830.073 262.576 836.134 257.725 843.104 258.635L847.044 259.241C853.711 260.151 858.56 266.215 857.651 273.189L853.105 308.36C852.196 315.031 845.831 319.882 839.164 318.973Z" fill="black"/>
<path d="M887.047 372.641H886.441H886.138C885.835 372.641 884.623 372.641 883.714 372.944C847.953 396.898 888.563 414.787 881.289 408.723C881.592 408.723 882.198 409.026 882.501 409.026H883.108C883.108 409.026 883.411 409.026 883.108 409.026H882.501L880.986 408.723L877.653 408.419C875.531 408.116 873.107 407.813 870.985 407.51C866.439 406.903 862.197 405.994 857.651 405.387C848.862 403.871 839.771 402.052 830.982 399.93C813.405 395.382 795.524 389.924 777.644 379.918C773.098 377.189 768.855 374.46 764.309 370.519C763.097 369.609 762.188 368.396 760.976 367.487L759.46 365.667L759.157 365.364L758.248 364.454C757.339 363.242 756.43 362.029 755.824 360.816C754.308 358.087 754.005 355.662 753.702 353.539C753.702 352.326 753.702 351.72 753.702 350.507C753.702 349.597 753.702 348.991 754.005 348.081C754.309 345.049 755.218 343.23 755.824 341.411C757.339 337.772 758.854 335.347 760.37 333.224C761.885 330.799 763.4 328.979 764.915 326.857C767.946 322.915 771.28 319.58 774.31 316.245C787.039 302.904 800.676 291.685 815.223 281.073L827.648 294.414C817.041 307.755 806.131 321.399 796.433 334.74C794.009 338.076 791.888 341.411 789.766 344.746C788.857 346.262 787.948 347.778 787.342 349.294C786.736 350.81 786.129 352.023 786.129 352.629C786.129 352.933 786.129 352.933 786.433 352.023C786.433 351.72 786.433 351.417 786.433 351.113C786.433 350.81 786.433 350.204 786.433 349.901C786.433 348.688 786.129 347.475 785.22 345.656C784.917 344.746 784.311 343.836 783.705 343.23C783.099 342.624 783.402 342.927 783.402 342.927L783.705 343.23L784.311 343.836C784.917 344.14 785.22 344.746 785.826 345.049C788.251 346.869 790.978 348.385 794.312 350.204C800.676 353.539 807.95 356.268 815.829 358.39C823.405 360.816 831.285 362.635 839.467 364.454C847.65 366.274 855.832 367.79 864.015 369.306C868.258 369.912 872.198 370.822 876.44 371.428L882.804 372.338L885.835 372.944L887.653 373.247L888.866 373.551H889.472H890.078C890.381 373.551 890.987 373.854 891.29 373.854C884.32 367.79 924.929 385.679 888.866 409.632C888.259 409.632 886.744 409.935 886.441 409.935H885.835H885.229H884.623L887.047 372.641Z" fill="#B55B52"/>
<path d="M829.467 262.577H840.68L836.74 277.737L815.829 270.157L819.466 266.519C822.193 264.093 825.83 262.577 829.467 262.577Z" fill="#B55B52"/>
<path d="M810.677 290.775L815.829 270.157L836.74 277.737C836.74 277.737 836.74 302.6 820.375 301.387L810.677 290.775Z" fill="#B55B52"/>
<path d="M980.692 419.638C978.873 420.244 978.267 420.548 977.055 420.851C976.146 421.154 974.934 421.457 974.024 421.76C972.206 422.367 970.085 422.67 968.266 422.973C964.63 423.58 960.69 424.186 957.053 424.489C949.78 425.096 942.507 425.096 935.233 424.186C927.96 423.58 920.99 422.367 914.019 420.851C910.686 420.244 907.049 419.032 903.715 418.122L901.291 417.516L899.776 417.212C898.866 416.909 898.26 416.606 897.351 416.303C894.321 415.09 891.29 413.271 889.169 411.451C884.623 407.51 881.592 403.568 879.471 399.626C877.349 395.685 875.834 391.743 874.622 388.105C872.501 380.828 870.985 373.551 870.379 366.88C868.864 352.933 869.167 339.895 870.985 326.25H889.169C891.29 338.076 893.714 350.507 897.048 361.726C898.866 367.183 900.382 372.641 902.806 377.189C904.018 379.312 904.928 381.434 906.14 382.95C907.352 384.466 908.564 385.376 908.867 385.376C909.17 385.376 909.17 385.376 908.867 385.072H909.17H909.777L911.898 385.376L916.141 385.982L920.383 386.589C923.111 387.195 926.142 387.195 928.869 387.498C931.597 387.498 934.627 387.801 937.355 387.801C942.81 387.801 948.568 387.801 953.72 387.195C956.447 386.892 958.872 386.589 961.599 385.982C962.811 385.679 964.024 385.376 965.236 385.376L966.751 385.072C967.054 385.072 967.963 384.769 967.66 384.769L980.692 419.638Z" fill="#B55B52"/>
<path d="M960.387 301.388C954.932 325.948 953.417 344.14 958.569 363.545C958.569 363.545 953.114 381.435 920.08 381.435C883.714 381.435 903.412 363.545 903.412 363.545C923.414 358.694 923.414 344.14 920.383 330.193L960.387 301.388Z" fill="#B55B52"/>
<path d="M964.933 374.763C967.66 369.002 970.994 362.635 964.933 360.512C958.569 358.39 923.111 355.964 910.383 360.209C897.957 364.454 900.988 375.976 900.988 375.976L964.933 374.763Z" fill="#263238"/>
<path d="M1134.04 1032.11C1136.16 1030.9 1138.28 1029.08 1139.49 1027.87C1139.8 1027.57 1139.8 1027.57 1139.8 1027.26C1139.8 1026.96 1139.49 1026.96 1139.19 1026.96C1137.98 1026.96 1127.98 1026.66 1126.16 1029.39C1125.86 1029.69 1125.55 1030.6 1126.16 1031.51C1126.77 1032.72 1127.67 1033.63 1128.89 1033.63C1130.7 1033.93 1132.52 1033.02 1134.04 1032.11ZM1137.68 1028.17C1134.34 1031.2 1131.01 1032.72 1129.19 1032.42C1128.28 1032.42 1127.67 1031.81 1127.37 1030.9C1127.07 1030.6 1127.37 1030.3 1127.37 1029.99C1128.28 1028.48 1133.74 1027.87 1137.68 1028.17Z" fill="#EEBD5D"/>
<path d="M1139.49 1027.87C1139.8 1027.87 1139.8 1027.87 1139.49 1027.87C1139.8 1027.26 1139.8 1027.26 1139.8 1026.96C1139.49 1026.66 1135.25 1020.29 1131.31 1019.68C1130.4 1019.38 1129.49 1019.68 1128.58 1020.29C1127.37 1021.2 1127.37 1022.11 1127.67 1022.71C1128.58 1025.75 1136.16 1028.17 1139.49 1027.87C1139.49 1028.17 1139.49 1028.17 1139.49 1027.87ZM1129.49 1021.2C1129.8 1020.9 1130.4 1020.9 1131.01 1020.9C1133.43 1021.2 1136.46 1024.84 1137.98 1026.66C1134.64 1026.35 1129.49 1023.93 1128.89 1022.41C1128.89 1022.41 1128.58 1021.8 1129.49 1021.2C1129.49 1021.2 1129.49 1021.5 1129.49 1021.2Z" fill="#EEBD5D"/>
<path d="M1167.37 1016.65L1149.8 1030.9L1107.98 987.846L1125.55 973.596L1167.37 1016.65Z" fill="#B55B52"/>
<path d="M1141.31 1025.44L1163.74 1009.98C1164.65 1009.37 1165.56 1009.37 1166.47 1010.28L1179.5 1026.96C1181.01 1028.48 1181.01 1031.21 1178.89 1032.72C1171.01 1038.18 1167.68 1040 1157.07 1046.06C1150.71 1049.7 1145.86 1064.56 1124.04 1064.56C1114.04 1064.56 1110.7 1056.67 1114.95 1055.46C1136.46 1048.79 1137.07 1036.97 1139.19 1029.08C1139.19 1027.26 1140.1 1026.05 1141.31 1025.44Z" fill="#263238"/>
<path d="M859.166 580.034H988.874C990.389 562.145 983.419 482.098 998.572 398.11C1001.6 381.434 989.48 365.97 972.812 364.454C969.175 364.151 965.236 363.848 961.599 363.545C944.931 362.635 920.99 362.332 906.443 363.545C898.26 364.151 890.381 365.667 883.714 366.88C873.107 369.002 863.409 376.279 861.59 387.195C851.893 452.99 859.166 580.034 859.166 580.034Z" fill="#EEBD5D"/>
<path d="M885.532 567.299H847.347C838.861 567.299 832.497 560.326 833.406 551.836L837.952 510.297C838.861 501.807 846.741 494.833 855.226 494.833H893.411C901.897 494.833 908.261 501.807 907.352 510.297L902.806 551.836C901.897 560.326 894.017 567.299 885.532 567.299Z" fill="#263238"/>
<path d="M893.411 494.833L885.532 567.602C894.018 567.602 901.897 560.629 902.806 552.139L907.352 510.6C908.261 501.807 901.897 494.833 893.411 494.833Z" fill="black"/>
<path d="M904.018 510.903C903.715 510.903 903.109 510.6 902.806 510.297C902.2 509.691 902.503 508.781 903.109 508.175C904.018 507.568 987.965 438.437 971.297 364.758C970.994 363.848 971.6 363.242 972.509 362.939C973.418 362.636 974.025 363.242 974.328 364.152C991.299 439.65 905.837 509.691 904.928 510.6C904.624 510.903 904.321 510.903 904.018 510.903Z" fill="#263238"/>
<path d="M894.018 497.563H849.165C847.65 497.563 846.135 497.866 844.922 498.473C841.286 501.201 838.558 505.75 837.952 510.298L835.831 529.703C837.043 530.612 838.558 530.916 840.377 530.916H885.229C890.684 530.916 896.442 526.064 897.957 520.303L901.291 507.872C902.503 502.414 899.473 497.563 894.018 497.563Z" fill="black"/>
<path d="M885.229 528.489H840.376C834.921 528.489 831.891 523.638 833.406 517.877L836.74 505.445C838.255 499.684 844.013 494.833 849.468 494.833H894.321C899.776 494.833 902.806 499.684 901.291 505.445L897.957 517.877C896.442 523.638 890.684 528.489 885.229 528.489Z" fill="#263238"/>
<path opacity="0.2" d="M859.166 408.723C857.954 421.457 857.348 435.708 857.045 449.959C871.591 433.889 881.289 413.877 859.166 408.723Z" fill="black"/>
<path d="M889.775 415.393C872.5 430.857 837.649 410.542 837.649 410.542L827.345 360.21C827.345 360.21 866.136 360.21 896.442 363.848C930.081 367.79 909.17 397.807 889.775 415.393Z" fill="#EEBD5D"/>
<g opacity="0.2">
<path opacity="0.2" d="M1125.55 973.596L1107.98 987.846L1129.49 1009.98L1147.07 995.73L1125.55 973.596Z" fill="black"/>
</g>
<path d="M882.805 580.034C882.805 580.034 925.536 717.387 937.961 786.821C951.598 862.926 1113.13 1006.34 1113.13 1006.34L1143.13 978.144C1143.13 978.144 1043.42 845.34 1010.39 793.491C1003.42 711.626 988.874 579.731 988.874 579.731H882.805V580.034Z" fill="#263238"/>
<path d="M1101.01 1003.61L1114.95 1013.92L1152.83 981.479L1142.52 970.26L1101.01 1003.61Z" fill="#EEBD5D"/>
<path opacity="0.2" d="M904.018 650.984C907.352 662.809 910.989 675.544 914.625 688.582C933.718 660.383 936.445 626.121 936.445 626.121L904.018 650.984Z" fill="black"/>
<path d="M899.473 277.434C899.17 279.254 897.957 280.77 896.745 280.77C895.533 280.77 894.624 278.95 894.927 277.131C895.23 275.312 896.442 273.796 897.654 273.796C898.867 273.796 899.776 275.312 899.473 277.434Z" fill="#263238"/>
<path d="M897.957 280.77C897.957 280.77 891.896 291.382 886.441 296.536C889.472 300.175 895.533 299.265 895.533 299.265L897.957 280.77Z" fill="#A02724"/>
<path d="M898.563 264.7C898.26 264.7 897.957 264.397 897.957 263.79C897.654 263.184 898.26 262.578 898.866 262.274C899.17 262.274 904.321 260.758 908.867 265.003C909.473 265.306 909.473 266.216 908.867 266.519C908.564 267.126 907.655 267.126 907.352 266.519C903.715 263.184 899.473 264.094 899.473 264.094C899.169 264.7 898.866 264.7 898.563 264.7Z" fill="#263238"/>
<path d="M964.933 279.86C960.084 303.51 958.569 317.457 944.628 328.676C924.02 345.352 895.836 331.405 893.714 306.845C891.593 285.014 899.776 249.842 924.626 242.868C948.871 235.895 969.782 256.209 964.933 279.86Z" fill="#B55B52"/>
<path d="M911.292 291.382L900.988 292.291C900.988 292.291 899.473 277.434 907.655 268.944C902.2 268.035 897.351 259.242 898.26 247.417C899.17 234.985 918.262 214.974 932.203 227.708C947.053 241.353 976.752 244.688 970.691 252.875C979.177 251.359 999.784 279.557 979.177 293.504C958.872 307.452 965.842 321.096 956.144 326.554C946.446 332.011 914.322 326.554 911.292 291.382Z" fill="#263238"/>
<path d="M969.479 253.481C969.479 253.481 973.722 249.539 968.873 241.353C975.843 244.688 974.631 251.965 969.479 253.481Z" fill="#263238"/>
<path d="M922.808 290.472C921.596 296.839 917.656 302.297 913.716 305.632C907.655 310.787 902.806 306.542 902.806 299.568C902.806 293.201 906.14 282.588 913.11 280.163C919.777 277.737 924.323 283.498 922.808 290.472Z" fill="#B55B52"/>
<path d="M684.605 1039.69C687.03 1039.69 689.757 1039.09 691.576 1038.78C691.879 1038.78 691.879 1038.48 692.182 1038.18C692.485 1037.88 692.182 1037.57 691.879 1037.57C690.97 1036.97 682.484 1031.81 679.453 1033.33C679.15 1033.63 678.544 1033.93 678.241 1035.15C678.241 1036.66 678.544 1037.57 679.453 1038.48C680.666 1039.09 682.484 1039.69 684.605 1039.69ZM689.757 1037.57C685.211 1038.48 681.878 1038.18 680.363 1036.97C679.756 1036.36 679.453 1035.75 679.453 1034.54C679.453 1033.93 679.756 1033.93 679.756 1033.93C681.272 1033.33 686.121 1035.75 689.757 1037.57Z" fill="#EEBD5D"/>
<path d="M691.273 1038.48H691.576C691.879 1038.48 691.879 1038.18 691.879 1037.88C691.879 1037.57 691.273 1029.99 688.242 1027.26C687.333 1026.66 686.424 1026.35 685.515 1026.35C683.999 1026.66 683.696 1027.57 683.393 1027.87C683.09 1031.2 688.242 1036.97 691.273 1038.48ZM686.121 1027.87C686.727 1027.87 687.03 1028.17 687.636 1028.48C689.757 1029.99 690.363 1034.54 690.666 1036.66C687.939 1034.54 684.605 1030.3 684.908 1028.48C684.908 1028.48 684.908 1027.87 686.121 1027.87C685.818 1027.87 685.818 1027.87 686.121 1027.87Z" fill="#EEBD5D"/>
<path d="M720.063 1038.48H695.818L695.515 982.388H719.76L720.063 1038.48Z" fill="#B55B52"/>
<path d="M695.818 1034.84H722.184C723.094 1034.84 724.003 1035.45 724.306 1036.36L728.245 1057.89C728.549 1060.01 726.73 1062.13 724.609 1062.13C714.911 1061.83 701.273 1061.53 689.151 1061.53C675.211 1061.53 674.301 1062.44 657.936 1062.44C647.935 1062.44 645.511 1052.43 649.754 1051.52C668.846 1047.28 672.786 1046.97 689.757 1036.66C691.879 1035.75 694 1034.84 695.818 1034.84Z" fill="#263238"/>
<path opacity="0.2" d="M695.515 982.388V1011.19H719.76V982.388H695.515Z" fill="black"/>
<path d="M859.166 580.034C859.166 580.034 692.182 709.503 684.908 782.879C677.332 859.59 686.424 1004.52 686.424 1004.52H727.639C727.639 1004.52 750.975 854.133 755.824 778.331C845.529 690.401 943.113 665.538 970.388 579.731H859.166V580.034Z" fill="#263238"/>
<path d="M679.453 988.453C679.15 988.453 680.968 1005.43 680.968 1005.43H730.973L732.791 990.272L679.453 988.453Z" fill="#EEBD5D"/>
</g>
<defs>
<clipPath id="clip0">
<rect width="1388" height="1097" fill="white"/>
</clipPath>
</defs>
</svg>
